<svg width="26" height="26" viewBox="0 0 26 26" fill="none" xmlns="http://www.w3.org/2000/svg">
<path d="M21.7501 3.22222H4.02789C2.2483 3.22222 0.805664 4.66486 0.805664 6.44444V19.3333C0.805664 21.1129 2.2483 22.5556 4.02789 22.5556H21.7501C23.5297 22.5556 24.9723 21.1129 24.9723 19.3333V6.44444C24.9723 4.66486 23.5297 3.22222 21.7501 3.22222Z" fill="white"/>
<path d="M1.31934 4.70928H24.4581C23.8854 3.81672 22.8897 3.22222 21.7498 3.22222H4.02761C2.88856 3.22222 1.89289 3.81672 1.31934 4.70928Z" fill="#A62842"/>
<path d="M1.63525 6.19633C1.62881 6.27931 1.61108 6.35906 1.61108 6.44445V7.6842H24.9722V6.44445C24.9722 6.35986 24.9545 6.28011 24.948 6.19633H1.63525Z" fill="#A62842"/>
<path d="M1.61108 9.17125H24.9722V10.6583H1.61108V9.17125Z" fill="#A62842"/>
<path d="M1.61108 12.1454H24.9722V13.6324H1.61108V12.1454Z" fill="#A62842"/>
<path d="M0.805664 15.1195H24.9723V16.6065H0.805664V15.1195Z" fill="#A62842"/>
<path d="M0.805664 19.3333C0.805664 19.4179 0.824192 19.4977 0.830636 19.5814H24.9474C24.9538 19.4985 24.9723 19.4187 24.9723 19.3333V18.0936H0.805664V19.3333Z" fill="#A62842"/>
<path d="M24.4581 21.0685H1.31934C1.89209 21.9611 2.88775 22.5556 4.02761 22.5556H21.7498C22.8889 22.5556 23.8846 21.9611 24.4581 21.0685Z" fill="#A62842"/>
<path d="M4.02789 3.22222H12.889V13.6324H0.805664V6.44444C0.805664 4.66578 2.24922 3.22222 4.02789 3.22222Z" fill="#102D5E"/>
<path opacity="0.15" d="M21.7501 3.22222H4.02789C2.24841 3.22222 0.805664 4.66497 0.805664 6.44444V19.3333C0.805664 21.1128 2.24841 22.5556 4.02789 22.5556H21.7501C23.5296 22.5556 24.9723 21.1128 24.9723 19.3333V6.44444C24.9723 4.66497 23.5296 3.22222 21.7501 3.22222ZM24.1668 19.3333C24.1668 20.6657 23.0825 21.75 21.7501 21.75H4.02789C2.6955 21.75 1.61122 20.6657 1.61122 19.3333V6.44444C1.61122 5.11205 2.6955 4.02778 4.02789 4.02778H21.7501C23.0825 4.02778 24.1668 5.11205 24.1668 6.44444V19.3333Z" fill="white"/>
<path opacity="0.2" d="M21.75 4.02778H4.02775C2.69295 4.02778 1.61108 5.10964 1.61108 6.44445V7.25C1.61108 5.9152 2.69295 4.83333 4.02775 4.83333H21.75C23.0848 4.83333 24.1666 5.9152 24.1666 7.25V6.44445C24.1666 5.10964 23.0848 4.02778 21.75 4.02778Z" fill="white"/>
<path d="M3.7063 6.01186L4.18319 5.66547H3.59433L3.41227 5.10561L3.23022 5.66547H2.64136L3.11744 6.01186L2.93539 6.57172L3.41227 6.22613L3.88836 6.57172L3.7063 6.01186Z" fill="white"/>
<path d="M6.1062 6.01186L6.58309 5.66547H5.99423L5.81218 5.10561L5.63012 5.66547H5.04126L5.51734 6.01186L5.33529 6.57172L5.81218 6.22613L6.28826 6.57172L6.1062 6.01186Z" fill="white"/>
<path d="M8.50667 6.01186L8.98275 5.66547H8.39389L8.21183 5.10561L8.02978 5.66547H7.44092L7.917 6.01186L7.73575 6.57172L8.21183 6.22613L8.68792 6.57172L8.50667 6.01186Z" fill="white"/>
<path d="M4.88648 7.47797L5.36337 7.13239H4.77451L4.59245 6.57172L4.41039 7.13239H3.82153L4.29762 7.47797L4.11556 8.03864L4.59245 7.69225L5.06853 8.03864L4.88648 7.47797Z" fill="white"/>
<path d="M7.28719 7.47797L7.76327 7.13239H7.17441L6.99235 6.57172L6.8103 7.13239H6.22144L6.69752 7.47797L6.51627 8.03864L6.99235 7.69225L7.46844 8.03864L7.28719 7.47797Z" fill="white"/>
<path d="M9.68684 7.47797L10.1629 7.13239H9.57407L9.39201 6.57172L9.20995 7.13239H8.62109L9.09798 7.47797L8.91593 8.03864L9.39201 7.69225L9.8689 8.03864L9.68684 7.47797Z" fill="white"/>
<path d="M4.88648 10.411L5.36337 10.0646H4.77451L4.59245 9.50475L4.41039 10.0646H3.82153L4.29762 10.411L4.11556 10.9709L4.59245 10.6253L5.06853 10.9709L4.88648 10.411Z" fill="white"/>
<path d="M7.28719 10.411L7.76327 10.0646H7.17441L6.99235 9.50475L6.8103 10.0646H6.22144L6.69752 10.411L6.51627 10.9709L6.99235 10.6253L7.46844 10.9709L7.28719 10.411Z" fill="white"/>
<path d="M9.68684 10.411L10.1629 10.0646H9.57407L9.39201 9.50475L9.20995 10.0646H8.62109L9.09798 10.411L8.91593 10.9709L9.39201 10.6253L9.8689 10.9709L9.68684 10.411Z" fill="white"/>
<path d="M10.9063 6.01186L11.3824 5.66547H10.7935L10.6115 5.10561L10.4294 5.66547H9.84058L10.3175 6.01186L10.1354 6.57172L10.6115 6.22613L11.0884 6.57172L10.9063 6.01186Z" fill="white"/>
<path d="M3.7063 8.94489L4.18319 8.5985H3.59433L3.41227 8.03864L3.23022 8.5985H2.64136L3.11744 8.94489L2.93539 9.50475L3.41227 9.15837L3.88836 9.50475L3.7063 8.94489Z" fill="white"/>
<path d="M6.1062 8.94489L6.58309 8.5985H5.99423L5.81218 8.03864L5.63012 8.5985H5.04126L5.51734 8.94489L5.33529 9.50475L5.81218 9.15837L6.28826 9.50475L6.1062 8.94489Z" fill="white"/>
<path d="M8.50667 8.94489L8.98275 8.5985H8.39389L8.21183 8.03864L8.02978 8.5985H7.44092L7.917 8.94489L7.73575 9.50475L8.21183 9.15837L8.68792 9.50475L8.50667 8.94489Z" fill="white"/>
<path d="M10.9063 8.94489L11.3824 8.5985H10.7935L10.6115 8.03864L10.4294 8.5985H9.84058L10.3175 8.94489L10.1354 9.50475L10.6115 9.15837L11.0884 9.50475L10.9063 8.94489Z" fill="white"/>
<path d="M3.7063 11.8771L4.18319 11.5315H3.59433L3.41227 10.9709L3.23022 11.5315H2.64136L3.11744 11.8771L2.93539 12.4378L3.41227 12.0914L3.88836 12.4378L3.7063 11.8771Z" fill="white"/>
<path d="M6.1062 11.8771L6.58309 11.5315H5.99423L5.81218 10.9709L5.63012 11.5315H5.04126L5.51734 11.8771L5.33529 12.4378L5.81218 12.0914L6.28826 12.4378L6.1062 11.8771Z" fill="white"/>
<path d="M8.50667 11.8771L8.98275 11.5315H8.39389L8.21183 10.9709L8.02978 11.5315H7.44092L7.917 11.8771L7.73575 12.4378L8.21183 12.0914L8.68792 12.4378L8.50667 11.8771Z" fill="white"/>
<path d="M10.9063 11.8771L11.3824 11.5315H10.7935L10.6115 10.9709L10.4294 11.5315H9.84058L10.3175 11.8771L10.1354 12.4378L10.6115 12.0914L11.0884 12.4378L10.9063 11.8771Z" fill="white"/>
</svg>
