<svg width="45" height="27" viewBox="0 0 45 27" fill="none" xmlns="http://www.w3.org/2000/svg">
<path d="M16.7266 18.168L18.6297 7.96939H21.6738L19.7693 18.168H16.7266ZM30.7671 8.18924C30.1641 7.98262 29.2191 7.76089 28.0389 7.76089C25.0309 7.76089 22.9123 9.14414 22.8941 11.1266C22.8772 12.5921 24.4068 13.4096 25.5614 13.8974C26.7464 14.3975 27.1447 14.7162 27.139 15.1625C27.1314 15.8462 26.1928 16.1584 25.3177 16.1584C24.0994 16.1584 23.4521 16.0038 22.4524 15.6232L22.06 15.4611L21.6329 17.7441C22.3439 18.0289 23.6586 18.2755 25.0238 18.2883C28.2237 18.2883 30.301 16.9208 30.3246 14.8037C30.336 13.6435 29.525 12.7607 27.7687 12.0327C26.7048 11.561 26.0532 11.2461 26.0601 10.7684C26.0601 10.3445 26.6116 9.89117 27.8035 9.89117C28.7988 9.87705 29.52 10.0753 30.0818 10.2819L30.3546 10.3996L30.7671 8.18924ZM38.6006 7.96923H36.2484C35.5198 7.96923 34.9744 8.15085 34.6545 8.81499L30.1336 18.1613H33.3301C33.3301 18.1613 33.8526 16.9047 33.9708 16.6287C34.3202 16.6287 37.4255 16.6331 37.8694 16.6331C37.9604 16.9902 38.2397 18.1613 38.2397 18.1613H41.0644L38.6006 7.96892V7.96923ZM34.8686 14.5549C35.1204 13.9673 36.0814 11.7039 36.0814 11.7039C36.0635 11.7311 36.3314 11.1134 36.485 10.7305L36.6907 11.6098C36.6907 11.6098 37.2736 14.0443 37.3955 14.5547H34.8686V14.5549ZM14.1425 7.96923L11.1622 14.9243L10.8448 13.5109C10.2899 11.8816 8.56135 10.1164 6.62891 9.23265L9.35399 18.1518L12.5747 18.1485L17.3671 7.96913L14.1425 7.96908" fill="#0E4595"/>
<path d="M8.38111 7.96887H3.4725L3.43359 8.18107C7.25244 9.02526 9.77922 11.0654 10.8284 13.5169L9.76102 8.8302C9.57681 8.1844 9.04237 7.99164 8.38122 7.96913" fill="#F2AE14"/>
</svg>
