<svg width="319" height="793" viewBox="0 0 319 793" fill="none" xmlns="http://www.w3.org/2000/svg">
<path d="M-303.021 439.552C-292.9 495.243 -267.11 520.732 -236.364 568.256C-192.527 636.014 -180.51 708.902 -101.375 724.723C-42.044 736.585 -0.399709 718.712 47.4643 681.7C122.695 623.527 95.308 541.001 118.456 448.762C142.721 352.073 242.74 263.712 167.548 198.262C90.0956 130.846 12.5488 349.437 -75.9794 297.412C-127.262 267.274 -104.629 196.566 -157.057 168.468C-263.033 111.673 -324.521 321.254 -303.021 439.552Z" fill="#E58411" fill-opacity="0.6"/>
<path d="M-271.438 458.094C-262.712 506.262 -240.423 528.299 -213.859 569.394C-175.985 627.986 -165.627 691.029 -97.2079 704.679C-45.9117 714.913 -9.89495 699.434 31.5084 667.397C96.5843 617.042 72.9407 545.669 92.9976 465.871C114.022 382.223 200.546 305.744 135.559 249.163C68.6182 190.882 1.4673 380.001 -75.0571 335.038C-119.387 308.992 -99.784 247.818 -145.105 223.537C-236.714 174.456 -289.975 355.774 -271.438 458.094Z" fill="#E58411"/>
</svg>
