<svg width="438" height="445" viewBox="0 0 438 445" fill="none" xmlns="http://www.w3.org/2000/svg">
<path d="M260.473 102.256C231.648 96.4574 214.396 104.017 185.557 109.741C144.439 117.902 106.95 109.719 84.1303 144.884C67.0217 171.248 67.6598 194.779 76.3432 224.985C89.9914 272.46 135.082 275.073 175.166 303.943C217.184 334.205 240.648 399.438 286.668 375.698C334.07 351.245 243.43 271.875 285.528 239.122C309.914 220.149 339.704 244.64 363.325 224.723C411.073 184.463 321.701 114.574 260.473 102.256Z" fill="#E58411" fill-opacity="0.6"/>
<path d="M245.463 113.945C220.537 108.916 205.624 115.447 180.69 120.386C145.141 127.427 112.722 120.332 93.0062 150.741C78.2249 173.539 78.7871 193.894 86.3086 220.027C98.1307 261.1 137.12 263.38 171.792 288.371C208.136 314.568 228.454 371.007 268.234 350.492C309.21 329.36 230.802 260.662 267.188 232.349C288.265 215.948 314.034 237.146 334.45 219.928C375.717 185.123 298.411 124.627 245.463 113.945Z" fill="#E58411"/>
</svg>
