<svg width="254" height="791" viewBox="0 0 254 791" fill="none" xmlns="http://www.w3.org/2000/svg">
<path d="M432.21 162.531C376.719 151.367 343.507 165.92 287.987 176.94C208.829 192.651 136.657 176.898 92.7259 244.595C59.7895 295.35 61.018 340.651 77.7347 398.8C104.009 490.198 190.815 495.227 267.983 550.806C348.873 609.066 394.046 734.648 482.639 688.946C573.895 641.87 399.401 489.072 480.445 426.018C527.392 389.492 584.741 436.641 630.216 398.297C722.137 320.79 550.084 186.244 432.21 162.531Z" fill="#E58411" fill-opacity="0.6"/>
<path d="M403.314 185.033C355.329 175.352 326.618 187.925 278.617 197.433C210.18 210.989 147.768 197.33 109.813 255.87C81.3572 299.76 82.4396 338.947 96.9196 389.255C119.679 468.328 194.738 472.717 261.487 520.829C331.455 571.261 370.569 679.914 447.152 640.419C526.037 599.737 375.091 467.485 445.138 412.978C485.715 381.403 535.324 422.213 574.627 389.065C654.072 322.06 505.246 205.598 403.314 185.033Z" fill="#E58411"/>
</svg>
