<svg width="333" height="684" viewBox="0 0 333 684" fill="none" xmlns="http://www.w3.org/2000/svg">
<path d="M212.579 206.583C180.566 159.902 146.607 147.191 99.1128 116.398C31.3981 72.4947 -9.37834 10.8968 -88.0635 28.8247C-147.056 42.2658 -177.749 75.6077 -206.289 128.958C-251.147 212.812 -192.404 276.92 -175.802 370.558C-158.4 468.715 -213.533 590.254 -118.149 619.227C-19.8983 649.071 -38.5353 417.881 63.5279 429.15C122.652 435.677 130.916 509.458 190.251 513.656C310.187 522.14 280.58 305.742 212.579 206.583Z" fill="#E58411" fill-opacity="0.6"/>
<path d="M186.175 224.581C158.511 184.194 129.159 173.2 88.1106 146.564C29.586 108.586 -5.65032 55.2933 -73.6683 70.8197C-124.664 82.4603 -151.2 111.316 -175.879 157.485C-214.669 230.051 -163.902 285.512 -149.568 366.534C-134.543 451.465 -182.22 556.641 -99.776 581.695C-14.8537 607.501 -30.9235 407.459 57.2974 417.191C108.402 422.829 115.534 486.67 166.821 490.292C270.492 497.613 244.937 310.37 186.175 224.581Z" fill="#E58411"/>
</svg>
