<svg width="424" height="684" viewBox="0 0 424 684" fill="none" xmlns="http://www.w3.org/2000/svg">
<path d="M510.591 206.583C478.578 159.902 444.619 147.191 397.125 116.398C329.41 72.4947 288.634 10.8968 209.949 28.8247C150.956 42.2658 120.264 75.6077 91.7234 128.958C46.8648 212.812 105.609 276.92 122.21 370.558C139.612 468.715 84.4792 590.254 179.863 619.227C278.114 649.071 259.477 417.881 361.54 429.15C420.664 435.677 428.929 509.458 488.263 513.656C608.199 522.14 578.593 305.742 510.591 206.583Z" fill="#E58411" fill-opacity="0.6"/>
<path d="M474.187 202.581C446.523 162.194 417.171 151.2 376.123 124.564C317.598 86.5863 282.362 33.2932 214.344 48.8195C163.349 60.4602 136.813 89.316 112.133 135.485C73.3436 208.051 124.11 263.512 138.444 344.534C153.47 429.465 105.792 534.641 188.236 559.695C273.159 585.501 257.089 385.458 345.31 395.191C396.415 400.829 403.546 464.67 454.834 468.292C558.504 475.613 532.95 288.37 474.187 202.581Z" fill="#E58411"/>
</svg>
